<svg id="waves" viewBox="0 0 1440 600" preserveAspectRatio="none" xmlns="http://www/svg" fill="currentColor">
	<path d="M 0,600
		C 0,600 0,120 0,120
		C 53,132 107,144 154,148
		C 200,151 240,146 290,133
		C 339,119 399,96 454,99
		C 508,101 556,128 611,126
		C 665,123 724,90 785,85
		C 845,79 905,99 968,117
		C 1030,134 1094,147 1147,157
		C 1199,166 1241,170 1289,164
		C 1336,157 1388,138 1440,120
		C 1440,120 1440,600 1440,600 Z" style="opacity:0.3">
		<animate repeatCount="indefinite" attributeName="d" dur="15s" values="
		M 0,600
		C 0,600 0,120 0,120
		C 53,132 107,144 154,148
		C 200,151 240,146 290,133
		C 339,119 399,96 454,99
		C 508,101 556,128 611,126
		C 665,123 724,90 785,85
		C 845,79 905,99 968,117
		C 1030,134 1094,147 1147,157
		C 1199,166 1241,170 1289,164
		C 1336,157 1388,138 1440,120
		C 1440,120 1440,600 1440,600 Z;
		M 0,600
		C 0,600 0,120 0,120
		C 71,127 143,135 189,144
		C 234,152 253,160 299,156
		C 344,151 418,133 480,120
		C 541,106 592,98 637,89
		C 681,79 720,70 777,92
		C 833,113 908,165 959,160
		C 1009,154 1036,90 1093,79
		C 1149,67 1237,106 1300,122
		C 1362,137 1401,128 1440,120
		C 1440,120 1440,600 1440,600 Z;
		M 0,600
		C 0,600 0,120 0,120
		C 53,132 107,144 154,148
		C 200,151 240,146 290,133
		C 339,119 399,96 454,99
		C 508,101 556,128 611,126
		C 665,123 724,90 785,85
		C 845,79 905,99 968,117
		C 1030,134 1094,147 1147,157
		C 1199,166 1241,170 1289,164
		C 1336,157 1388,138 1440,120
		C 1440,120 1440,600 1440,600 Z
			"></animate>
	</path>
	<path d="M 0,600
		C 0,600 0,240 0,240
		C 47,242 95,244 151,245
		C 206,245 268,244 329,238
		C 389,231 447,220 502,223
		C 556,225 607,240 650,240
		C 692,239 725,224 774,211
		C 822,197 887,186 945,204
		C 1002,221 1053,267 1108,274
		C 1162,280 1220,249 1276,237
		C 1331,224 1385,232 1440,240
		C 1440,240 1440,600 1440,600 Z" style="opacity:0.5">
		<animate repeatCount="indefinite" attributeName="d" dur="12s" values="
		M 0,600
		C 0,600 0,240 0,240
		C 47,242 95,244 151,245
		C 206,245 268,244 329,238
		C 389,231 447,220 502,223
		C 556,225 607,240 650,240
		C 692,239 725,224 774,211
		C 822,197 887,186 945,204
		C 1002,221 1053,267 1108,274
		C 1162,280 1220,249 1276,237
		C 1331,224 1385,232 1440,240
		C 1440,240 1440,600 1440,600 Z;
		M 0,600
		C 0,600 0,240 0,240
		C 43,225 86,210 135,212
		C 183,213 238,232 295,238
		C 351,243 408,235 471,243
		C 533,250 600,271 660,281
		C 719,290 772,287 815,279
		C 857,270 891,258 935,257
		C 978,255 1032,266 1092,262
		C 1151,257 1217,236 1276,230
		C 1334,223 1387,231 1440,240
		C 1440,240 1440,600 1440,600 Z;
		M 0,600
		C 0,600 0,240 0,240
		C 47,242 95,244 151,245
		C 206,245 268,244 329,238
		C 389,231 447,220 502,223
		C 556,225 607,240 650,240
		C 692,239 725,224 774,211
		C 822,197 887,186 945,204
		C 1002,221 1053,267 1108,274
		C 1162,280 1220,249 1276,237
		C 1331,224 1385,232 1440,240
		C 1440,240 1440,600 1440,600 Z
		"></animate>
	</path>
	<path d="M 0,600
		C 0,600 0,360 0,360
		C 57,369 114,379 167,384
		C 219,388 267,387 314,376
		C 360,364 406,344 466,354
		C 525,363 598,404 650,397
		C 701,389 733,334 779,331
		C 824,327 884,375 951,383
		C 1017,390 1089,358 1142,342
		C 1194,325 1228,326 1275,332
		C 1321,337 1380,348 1440,360
		C 1440,360 1440,600 1440,600 Z" style="opacity:0.7">
		<animate repeatCount="indefinite" attributeName="d" dur="8s" values="
		M 0,600
		C 0,600 0,360 0,360
		C 57,369 114,379 167,384
		C 219,388 267,387 314,376
		C 360,364 406,344 466,354
		C 525,363 598,404 650,397
		C 701,389 733,334 779,331
		C 824,327 884,375 951,383
		C 1017,390 1089,358 1142,342
		C 1194,325 1228,326 1275,332
		C 1321,337 1380,348 1440,360
		C 1440,360 1440,600 1440,600 Z;
		M 0,600
		C 0,600 0,360 0,360
		C 45,346 90,333 148,330
		C 205,326 273,332 330,349
		C 386,365 430,392 486,394
		C 541,395 609,370 661,375
		C 712,379 747,411 789,402
		C 830,392 880,340 933,322
		C 985,303 1042,316 1100,327
		C 1157,337 1215,344 1272,350
		C 1328,355 1384,357 1440,360
		C 1440,360 1440,600 1440,600 Z;
		M 0,600
		C 0,600 0,360 0,360
		C 57,369 114,379 167,384
		C 219,388 267,387 314,376
		C 360,364 406,344 466,354
		C 525,363 598,404 650,397
		C 701,389 733,334 779,331
		C 824,327 884,375 951,383
		C 1017,390 1089,358 1142,342
		C 1194,325 1228,326 1275,332
		C 1321,337 1380,348 1440,360
		C 1440,360 1440,600 1440,600 Z
		"></animate>
	</path>
	<path d="M 0,600
		C 0,600 0,480 0,480
		C 46,476 92,472 146,482
		C 199,491 259,513 313,521
		C 366,528 411,522 464,502
		C 516,481 575,447 631,444
		C 686,440 737,467 787,482
		C 836,496 883,500 936,488
		C 988,475 1045,447 1105,449
		C 1164,450 1226,480 1283,490
		C 1339,499 1389,489 1440,480
		C 1440,480 1440,600 1440,600 Z">
		<animate repeatCount="indefinite" attributeName="d" dur="6s" values="
		M 0,600
		C 0,600 0,480 0,480
		C 46,476 92,472 146,482
		C 199,491 259,513 313,521
		C 366,528 411,522 464,502
		C 516,481 575,447 631,444
		C 686,440 737,467 787,482
		C 836,496 883,500 936,488
		C 988,475 1045,447 1105,449
		C 1164,450 1226,480 1283,490
		C 1339,499 1389,489 1440,480
		C 1440,480 1440,600 1440,600 Z;
		M 0,600
		C 0,600 0,480 0,480
		C 52,473 105,466 156,472
		C 206,477 256,496 308,507
		C 359,517 413,518 467,519
		C 520,519 572,520 621,514
		C 669,507 715,494 770,475
		C 824,455 887,430 943,442
		C 998,453 1044,501 1102,512
		C 1159,522 1226,496 1285,485
		C 1343,473 1391,476 1440,480
		C 1440,480 1440,600 1440,600 Z;
		M 0,600
		C 0,600 0,480 0,480
		C 46,476 92,472 146,482
		C 199,491 259,513 313,521
		C 366,528 411,522 464,502
		C 516,481 575,447 631,444
		C 686,440 737,467 787,482
		C 836,496 883,500 936,488
		C 988,475 1045,447 1105,449
		C 1164,450 1226,480 1283,490
		C 1339,499 1389,489 1440,480
		C 1440,480 1440,600 1440,600 Z;
		"></animate>
	</path>
</svg>
